<svg xmlns="http://www.w3.org/2000/svg" viewBox="0 0 100 100">
  <defs>
    <linearGradient id="grad1" x1="0%" y1="0%" x2="100%" y2="100%">
      <stop offset="0%" style="stop-color:#25D366;stop-opacity:1" />
      <stop offset="100%" style="stop-color:#128C7E;stop-opacity:1" />
    </linearGradient>
  </defs>
  <!-- Background circle -->
  <circle cx="50" cy="50" r="48" fill="url(#grad1)"/>
  <!-- Chat bubble -->
  <path d="M 30 35 L 30 55 L 20 60 L 25 50 L 25 40 Q 25 35 30 35 Z" fill="white" opacity="0.9"/>
  <path d="M 35 30 L 70 30 Q 75 30 75 35 L 75 50 Q 75 55 70 55 L 50 55 L 40 65 L 45 55 L 35 55 Q 30 55 30 50 L 30 35 Q 30 30 35 30 Z" fill="white"/>
  <!-- Bot icon inside -->
  <circle cx="50" cy="42" r="3" fill="#128C7E"/>
  <circle cx="60" cy="42" r="3" fill="#128C7E"/>
  <path d="M 45 48 Q 50 52 55 48" stroke="#128C7E" stroke-width="2" fill="none" stroke-linecap="round"/>
</svg>
